<svg width="320" height="389" viewBox="0 0 320 389" fill="none" xmlns="http://www.w3.org/2000/svg">
<rect width="320" height="389" fill="url(#paint0_linear_370_1642)"/>
<path d="M111.549 203.118C123.451 224.154 141.282 236.577 151.377 230.866C153.144 229.865 154.558 228.375 155.622 226.485L105.187 157.347C98.6735 165.503 101.051 184.562 111.549 203.118Z" fill="url(#paint1_linear_370_1642)"/>
<path d="M207.921 203.118C196.019 224.154 178.188 236.577 168.094 230.866C166.326 229.865 164.913 228.375 163.848 226.485L214.284 157.347C220.797 165.503 218.419 184.562 207.921 203.118Z" fill="url(#paint2_linear_370_1642)"/>
<path d="M160 225.219L209 155.719C213.166 145.564 210.551 125.967 200 113.219C190.29 101.486 170.206 96.1659 160 95.7187C151.441 95.3437 129.458 102.012 117.5 114.719C106.747 126.146 105.238 142.935 109.5 155.719L160 225.219Z" fill="url(#paint3_linear_370_1642)"/>
<path d="M158 173.719C179.539 173.719 197 158.944 197 140.719C197 139.99 196.972 139.268 196.917 138.551C196.407 131.893 194 125.719 189.07 120.77C186 118.219 181.534 116.719 177 116.719C168.142 116.719 160.628 122.478 158 130.456C155.372 122.478 147.858 116.719 139 116.719C134.448 116.719 130 118.219 126.89 120.8C122 125.719 119.591 131.917 119.083 138.551C119.028 139.268 119 139.99 119 140.719C119 158.944 136.461 173.719 158 173.719Z" fill="#EFE4FC"/>
<path d="M156.562 159.193C156.885 160.062 158.115 160.062 158.438 159.193L160.897 152.567C161.139 151.913 160.656 151.219 159.959 151.219H155.041C154.344 151.219 153.861 151.913 154.103 152.567L156.562 159.193Z" fill="#DB6C9E"/>
<path d="M142.067 185.294C142.396 186.148 143.604 186.148 143.933 185.294L145.075 182.328C145.327 181.673 144.844 180.969 144.142 180.969H141.858C141.156 180.969 140.673 181.673 140.925 182.328L142.067 185.294Z" fill="#EFE4FC"/>
<path d="M160.067 188.294C160.396 189.148 161.604 189.148 161.933 188.294L163.075 185.328C163.327 184.673 162.844 183.969 162.142 183.969H159.858C159.156 183.969 158.673 184.673 158.925 185.328L160.067 188.294Z" fill="#EFE4FC"/>
<path d="M173.067 183.294C173.396 184.148 174.604 184.148 174.933 183.294L176.075 180.328C176.327 179.673 175.844 178.969 175.142 178.969H172.858C172.156 178.969 171.673 179.673 171.925 180.328L173.067 183.294Z" fill="#EFE4FC"/>
<path d="M168.067 199.294C168.396 200.148 169.604 200.148 169.933 199.294L171.075 196.328C171.327 195.673 170.844 194.969 170.142 194.969H167.858C167.156 194.969 166.673 195.673 166.925 196.328L168.067 199.294Z" fill="#EFE4FC"/>
<path d="M151.067 201.294C151.396 202.148 152.604 202.148 152.933 201.294L154.075 198.328C154.327 197.673 153.844 196.969 153.142 196.969H150.858C150.156 196.969 149.673 197.673 149.925 198.328L151.067 201.294Z" fill="#EFE4FC"/>
<path d="M158.067 212.294C158.396 213.148 159.604 213.148 159.933 212.294L161.075 209.328C161.327 208.673 160.844 207.969 160.142 207.969H157.858C157.156 207.969 156.673 208.673 156.925 209.328L158.067 212.294Z" fill="#EFE4FC"/>
<circle cx="139" cy="136.719" r="9" fill="#DB6C9E"/>
<circle cx="177" cy="136.719" r="9" fill="#DB6C9E"/>
<path d="M123.012 256.249V283H119.46V271.271H105.437V283H101.848V256.249H105.437V267.867H119.46V256.249H123.012ZM128.535 275.193C128.535 273.664 128.893 272.282 129.608 271.049C130.348 269.816 131.359 268.841 132.642 268.126C133.925 267.411 135.38 267.053 137.008 267.053C138.685 267.053 140.153 267.411 141.411 268.126C142.669 268.841 143.643 269.816 144.334 271.049C145.025 272.282 145.37 273.664 145.37 275.193C145.37 276.722 145.025 278.116 144.334 279.374C143.643 280.607 142.657 281.582 141.374 282.297C140.116 283.012 138.648 283.37 136.971 283.37C135.343 283.37 133.888 283.037 132.605 282.371C131.347 281.68 130.348 280.731 129.608 279.522C128.893 278.289 128.535 276.846 128.535 275.193ZM131.976 275.23C131.976 276.217 132.198 277.117 132.642 277.931C133.086 278.72 133.678 279.349 134.418 279.818C135.183 280.287 136.021 280.521 136.934 280.521C137.896 280.521 138.747 280.287 139.487 279.818C140.252 279.349 140.844 278.72 141.263 277.931C141.682 277.117 141.892 276.217 141.892 275.23C141.892 274.243 141.682 273.355 141.263 272.566C140.844 271.752 140.252 271.111 139.487 270.642C138.747 270.149 137.896 269.902 136.934 269.902C135.997 269.902 135.146 270.149 134.381 270.642C133.641 271.135 133.049 271.789 132.605 272.603C132.186 273.392 131.976 274.268 131.976 275.23ZM148.697 275.193C148.697 273.664 149.055 272.282 149.77 271.049C150.51 269.816 151.522 268.841 152.804 268.126C154.087 267.411 155.542 267.053 157.17 267.053C158.848 267.053 160.315 267.411 161.573 268.126C162.831 268.841 163.806 269.816 164.496 271.049C165.187 272.282 165.532 273.664 165.532 275.193C165.532 276.722 165.187 278.116 164.496 279.374C163.806 280.607 162.819 281.582 161.536 282.297C160.278 283.012 158.811 283.37 157.133 283.37C155.505 283.37 154.05 283.037 152.767 282.371C151.509 281.68 150.51 280.731 149.77 279.522C149.055 278.289 148.697 276.846 148.697 275.193ZM152.138 275.23C152.138 276.217 152.36 277.117 152.804 277.931C153.248 278.72 153.84 279.349 154.58 279.818C155.345 280.287 156.184 280.521 157.096 280.521C158.058 280.521 158.909 280.287 159.649 279.818C160.414 279.349 161.006 278.72 161.425 277.931C161.845 277.117 162.054 276.217 162.054 275.23C162.054 274.243 161.845 273.355 161.425 272.566C161.006 271.752 160.414 271.111 159.649 270.642C158.909 270.149 158.058 269.902 157.096 269.902C156.159 269.902 155.308 270.149 154.543 270.642C153.803 271.135 153.211 271.789 152.767 272.603C152.348 273.392 152.138 274.268 152.138 275.23ZM179.219 283.37C178.06 283.37 176.938 283.099 175.852 282.556C174.792 282.013 173.965 281.286 173.373 280.373L173.595 279.3V290.363H170.191V267.46H173.151L173.632 271.382L173.262 270.309C174.002 269.372 174.94 268.595 176.074 267.978C177.209 267.361 178.479 267.053 179.885 267.053C181.316 267.053 182.599 267.398 183.733 268.089C184.893 268.78 185.805 269.742 186.471 270.975C187.137 272.208 187.47 273.651 187.47 275.304C187.47 276.957 187.113 278.387 186.397 279.596C185.682 280.805 184.695 281.742 183.437 282.408C182.204 283.049 180.798 283.37 179.219 283.37ZM178.553 280.632C179.54 280.632 180.44 280.41 181.254 279.966C182.093 279.497 182.759 278.868 183.252 278.079C183.746 277.265 183.992 276.352 183.992 275.341C183.992 274.305 183.758 273.392 183.289 272.603C182.821 271.789 182.192 271.148 181.402 270.679C180.638 270.21 179.774 269.976 178.812 269.976C177.924 269.976 177.123 270.149 176.407 270.494C175.692 270.839 175.1 271.32 174.631 271.937C174.163 272.529 173.83 273.22 173.632 274.009V276.562C173.756 277.351 174.052 278.054 174.52 278.671C174.989 279.288 175.569 279.769 176.259 280.114C176.975 280.459 177.739 280.632 178.553 280.632ZM192.124 254.362H195.565V283H192.124V254.362ZM207.882 283.37C206.452 283.37 205.144 283.062 203.96 282.445C202.801 281.828 201.876 280.928 201.185 279.744C200.519 278.535 200.186 277.068 200.186 275.341C200.186 273.639 200.544 272.171 201.259 270.938C201.975 269.68 202.924 268.718 204.108 268.052C205.317 267.386 206.637 267.053 208.067 267.053C209.498 267.053 210.707 267.386 211.693 268.052C212.68 268.693 213.432 269.458 213.95 270.346L213.728 270.938L214.061 267.682H217.243V283H213.802V279.004L214.172 279.892C214.074 280.139 213.852 280.459 213.506 280.854C213.186 281.224 212.742 281.606 212.174 282.001C211.632 282.396 211.003 282.729 210.287 283C209.572 283.247 208.77 283.37 207.882 283.37ZM208.807 280.521C209.671 280.521 210.448 280.361 211.138 280.04C211.829 279.719 212.396 279.275 212.84 278.708C213.309 278.116 213.63 277.413 213.802 276.599V273.602C213.605 272.862 213.26 272.221 212.766 271.678C212.273 271.111 211.681 270.679 210.99 270.383C210.3 270.062 209.535 269.902 208.696 269.902C207.784 269.902 206.945 270.124 206.18 270.568C205.416 271.012 204.799 271.629 204.33 272.418C203.886 273.207 203.664 274.132 203.664 275.193C203.664 276.18 203.899 277.08 204.367 277.894C204.836 278.708 205.465 279.349 206.254 279.818C207.044 280.287 207.895 280.521 208.807 280.521Z" fill="#DB6C9E"/>
<defs>
<linearGradient id="paint0_linear_370_1642" x1="160" y1="0" x2="160" y2="389" gradientUnits="userSpaceOnUse">
<stop offset="0.453125" stop-color="#EFE4FC"/>
<stop offset="1" stop-color="#C0A3E2"/>
</linearGradient>
<linearGradient id="paint1_linear_370_1642" x1="102.076" y1="159.107" x2="144.785" y2="234.595" gradientUnits="userSpaceOnUse">
<stop offset="0.416667" stop-color="#DB6C9E"/>
<stop offset="1" stop-color="#8A62C2"/>
</linearGradient>
<linearGradient id="paint2_linear_370_1642" x1="217.395" y1="159.107" x2="174.686" y2="234.595" gradientUnits="userSpaceOnUse">
<stop offset="0.416667" stop-color="#DB6C9E"/>
<stop offset="1" stop-color="#8A62C2"/>
</linearGradient>
<linearGradient id="paint3_linear_370_1642" x1="159.089" y1="95.7037" x2="159.089" y2="225.219" gradientUnits="userSpaceOnUse">
<stop offset="0.416667" stop-color="#DB6C9E"/>
<stop offset="1" stop-color="#8A62C2"/>
</linearGradient>
</defs>
</svg>
